<svg xmlns="http://www.w3.org/2000/svg" xmlns:xlink="http://www.w3.org/1999/xlink" width="500" zoomAndPan="magnify" viewBox="0 0 375 149.999998" height="200" preserveAspectRatio="xMidYMid meet" version="1.0"><defs><g/><clipPath id="38ec73f05b"><path d="M 1.875 13.570312 L 83 13.570312 L 83 135 L 1.875 135 Z M 1.875 13.570312 " clip-rule="nonzero"/></clipPath><clipPath id="81d4383466"><path d="M 30 56 L 128.625 56 L 128.625 135 L 30 135 Z M 30 56 " clip-rule="nonzero"/></clipPath></defs><rect x="-37.5" width="450" fill="#ffffff" y="-15" height="179.999997" fill-opacity="1"/><rect x="-37.5" width="450" fill="#ffffff" y="-15" height="179.999997" fill-opacity="1"/><g clip-path="url(#38ec73f05b)"><path fill="#2b2d9e" d="M 57.949219 13.570312 C 44.382812 13.570312 33.386719 24.570312 33.386719 38.136719 C 33.386719 51.703125 44.382812 62.699219 57.949219 62.699219 C 71.515625 62.699219 82.511719 51.703125 82.511719 38.136719 C 82.511719 24.570312 71.515625 13.570312 57.949219 13.570312 Z M 1.9375 89.433594 L 10.75 80.621094 C 20.183594 71.1875 35.480469 71.1875 44.914062 80.621094 L 82.511719 118.171875 L 73.699219 126.988281 C 64.265625 136.417969 48.96875 136.417969 39.535156 126.988281 L 1.9375 89.433594 " fill-opacity="1" fill-rule="nonzero"/></g><g clip-path="url(#81d4383466)"><path fill="#4d44e1" d="M 128.644531 72.011719 L 119.832031 63.195312 C 110.398438 53.761719 95.101562 53.761719 85.667969 63.195312 L 30.691406 118.171875 L 39.507812 126.988281 C 48.941406 136.417969 64.238281 136.417969 73.671875 126.988281 L 128.644531 72.011719 " fill-opacity="1" fill-rule="nonzero"/></g><g fill="#262626" fill-opacity="1"><g transform="translate(129.479556, 71.589676)"><g><path d="M 17.203125 -8.796875 L 23.859375 -30.6875 L 33.875 -30.6875 L 22.984375 0 L 11.375 0 L 0.5 -30.6875 L 10.5625 -30.6875 Z M 17.203125 -8.796875 "/></g></g><g transform="translate(163.900254, 71.589676)"><g><path d="M 32.328125 -15.828125 C 32.328125 -14.953125 32.273438 -14.039062 32.171875 -13.09375 L 10.890625 -13.09375 C 11.035156 -11.1875 11.644531 -9.726562 12.71875 -8.71875 C 13.800781 -7.707031 15.132812 -7.203125 16.71875 -7.203125 C 19.0625 -7.203125 20.691406 -8.191406 21.609375 -10.171875 L 31.609375 -10.171875 C 31.097656 -8.148438 30.171875 -6.332031 28.828125 -4.71875 C 27.492188 -3.113281 25.816406 -1.851562 23.796875 -0.9375 C 21.785156 -0.0195312 19.535156 0.4375 17.046875 0.4375 C 14.035156 0.4375 11.359375 -0.203125 9.015625 -1.484375 C 6.671875 -2.765625 4.835938 -4.597656 3.515625 -6.984375 C 2.203125 -9.367188 1.546875 -12.15625 1.546875 -15.34375 C 1.546875 -18.53125 2.191406 -21.3125 3.484375 -23.6875 C 4.785156 -26.070312 6.609375 -27.90625 8.953125 -29.1875 C 11.304688 -30.476562 14.003906 -31.125 17.046875 -31.125 C 20.015625 -31.125 22.648438 -30.5 24.953125 -29.25 C 27.265625 -28 29.070312 -26.21875 30.375 -23.90625 C 31.675781 -21.601562 32.328125 -18.910156 32.328125 -15.828125 Z M 22.703125 -18.3125 C 22.703125 -19.925781 22.148438 -21.207031 21.046875 -22.15625 C 19.953125 -23.113281 18.582031 -23.59375 16.9375 -23.59375 C 15.363281 -23.59375 14.035156 -23.132812 12.953125 -22.21875 C 11.867188 -21.300781 11.195312 -20 10.9375 -18.3125 Z M 22.703125 -18.3125 "/></g></g><g transform="translate(197.7711, 71.589676)"><g><path d="M 22.109375 -31.015625 C 25.691406 -31.015625 28.554688 -29.847656 30.703125 -27.515625 C 32.847656 -25.191406 33.921875 -21.992188 33.921875 -17.921875 L 33.921875 0 L 24.578125 0 L 24.578125 -16.65625 C 24.578125 -18.707031 24.046875 -20.300781 22.984375 -21.4375 C 21.921875 -22.570312 20.488281 -23.140625 18.6875 -23.140625 C 16.894531 -23.140625 15.46875 -22.570312 14.40625 -21.4375 C 13.34375 -20.300781 12.8125 -18.707031 12.8125 -16.65625 L 12.8125 0 L 3.40625 0 L 3.40625 -30.6875 L 12.8125 -30.6875 L 12.8125 -26.609375 C 13.757812 -27.960938 15.039062 -29.035156 16.65625 -29.828125 C 18.269531 -30.617188 20.085938 -31.015625 22.109375 -31.015625 Z M 22.109375 -31.015625 "/></g></g><g transform="translate(234.831085, 71.589676)"><g><path d="M 1.546875 -15.390625 C 1.546875 -18.546875 2.140625 -21.3125 3.328125 -23.6875 C 4.515625 -26.070312 6.132812 -27.90625 8.1875 -29.1875 C 10.238281 -30.476562 12.53125 -31.125 15.0625 -31.125 C 17.082031 -31.125 18.925781 -30.703125 20.59375 -29.859375 C 22.257812 -29.015625 23.566406 -27.878906 24.515625 -26.453125 L 24.515625 -40.6875 L 33.921875 -40.6875 L 33.921875 0 L 24.515625 0 L 24.515625 -4.40625 C 23.640625 -2.9375 22.382812 -1.757812 20.75 -0.875 C 19.125 0 17.226562 0.4375 15.0625 0.4375 C 12.53125 0.4375 10.238281 -0.210938 8.1875 -1.515625 C 6.132812 -2.816406 4.515625 -4.664062 3.328125 -7.0625 C 2.140625 -9.46875 1.546875 -12.242188 1.546875 -15.390625 Z M 24.515625 -15.34375 C 24.515625 -17.6875 23.863281 -19.535156 22.5625 -20.890625 C 21.269531 -22.242188 19.6875 -22.921875 17.8125 -22.921875 C 15.945312 -22.921875 14.363281 -22.253906 13.0625 -20.921875 C 11.757812 -19.585938 11.109375 -17.742188 11.109375 -15.390625 C 11.109375 -13.046875 11.757812 -11.1875 13.0625 -9.8125 C 14.363281 -8.4375 15.945312 -7.75 17.8125 -7.75 C 19.6875 -7.75 21.269531 -8.425781 22.5625 -9.78125 C 23.863281 -11.144531 24.515625 -13 24.515625 -15.34375 Z M 24.515625 -15.34375 "/></g></g><g transform="translate(272.165995, 71.589676)"><g><path d="M 32.328125 -15.828125 C 32.328125 -14.953125 32.273438 -14.039062 32.171875 -13.09375 L 10.890625 -13.09375 C 11.035156 -11.1875 11.644531 -9.726562 12.71875 -8.71875 C 13.800781 -7.707031 15.132812 -7.203125 16.71875 -7.203125 C 19.0625 -7.203125 20.691406 -8.191406 21.609375 -10.171875 L 31.609375 -10.171875 C 31.097656 -8.148438 30.171875 -6.332031 28.828125 -4.71875 C 27.492188 -3.113281 25.816406 -1.851562 23.796875 -0.9375 C 21.785156 -0.0195312 19.535156 0.4375 17.046875 0.4375 C 14.035156 0.4375 11.359375 -0.203125 9.015625 -1.484375 C 6.671875 -2.765625 4.835938 -4.597656 3.515625 -6.984375 C 2.203125 -9.367188 1.546875 -12.15625 1.546875 -15.34375 C 1.546875 -18.53125 2.191406 -21.3125 3.484375 -23.6875 C 4.785156 -26.070312 6.609375 -27.90625 8.953125 -29.1875 C 11.304688 -30.476562 14.003906 -31.125 17.046875 -31.125 C 20.015625 -31.125 22.648438 -30.5 24.953125 -29.25 C 27.265625 -28 29.070312 -26.21875 30.375 -23.90625 C 31.675781 -21.601562 32.328125 -18.910156 32.328125 -15.828125 Z M 22.703125 -18.3125 C 22.703125 -19.925781 22.148438 -21.207031 21.046875 -22.15625 C 19.953125 -23.113281 18.582031 -23.59375 16.9375 -23.59375 C 15.363281 -23.59375 14.035156 -23.132812 12.953125 -22.21875 C 11.867188 -21.300781 11.195312 -20 10.9375 -18.3125 Z M 22.703125 -18.3125 "/></g></g><g transform="translate(306.036841, 71.589676)"><g><path d="M 21.546875 0 L 15.671875 -8.515625 L 10.71875 0 L 0.546875 0 L 10.671875 -15.671875 L 0.28125 -30.6875 L 10.828125 -30.6875 L 16.71875 -22.21875 L 21.65625 -30.6875 L 31.828125 -30.6875 L 21.546875 -15.234375 L 32.109375 0 Z M 21.546875 0 "/></g></g></g><g fill="#262626" fill-opacity="1"><g transform="translate(338.368104, 71.589676)"><g><path d="M 34.75 -30.6875 L 15.5 14.578125 L 5.390625 14.578125 L 12.421875 -1.046875 L -0.0625 -30.6875 L 10.453125 -30.6875 L 17.546875 -11.484375 L 24.578125 -30.6875 Z M 34.75 -30.6875 "/></g></g></g><g fill="#2b2d9e" fill-opacity="1"><g transform="translate(128.706118, 115.718241)"><g><path d="M 15.0625 -31.125 C 17.226562 -31.125 19.125 -30.679688 20.75 -29.796875 C 22.382812 -28.921875 23.640625 -27.769531 24.515625 -26.34375 L 24.515625 -30.6875 L 33.921875 -30.6875 L 33.921875 -0.0625 C 33.921875 2.757812 33.363281 5.316406 32.25 7.609375 C 31.132812 9.898438 29.429688 11.722656 27.140625 13.078125 C 24.847656 14.441406 21.992188 15.125 18.578125 15.125 C 14.035156 15.125 10.351562 14.050781 7.53125 11.90625 C 4.707031 9.757812 3.09375 6.851562 2.6875 3.1875 L 11.984375 3.1875 C 12.273438 4.363281 12.96875 5.289062 14.0625 5.96875 C 15.164062 6.644531 16.523438 6.984375 18.140625 6.984375 C 20.085938 6.984375 21.632812 6.421875 22.78125 5.296875 C 23.9375 4.179688 24.515625 2.394531 24.515625 -0.0625 L 24.515625 -4.40625 C 23.597656 -2.96875 22.332031 -1.800781 20.71875 -0.90625 C 19.113281 -0.0078125 17.226562 0.4375 15.0625 0.4375 C 12.53125 0.4375 10.238281 -0.210938 8.1875 -1.515625 C 6.132812 -2.816406 4.515625 -4.664062 3.328125 -7.0625 C 2.140625 -9.46875 1.546875 -12.242188 1.546875 -15.390625 C 1.546875 -18.546875 2.140625 -21.3125 3.328125 -23.6875 C 4.515625 -26.070312 6.132812 -27.90625 8.1875 -29.1875 C 10.238281 -30.476562 12.53125 -31.125 15.0625 -31.125 Z M 24.515625 -15.34375 C 24.515625 -17.6875 23.863281 -19.535156 22.5625 -20.890625 C 21.269531 -22.242188 19.6875 -22.921875 17.8125 -22.921875 C 15.945312 -22.921875 14.363281 -22.253906 13.0625 -20.921875 C 11.757812 -19.585938 11.109375 -17.742188 11.109375 -15.390625 C 11.109375 -13.046875 11.757812 -11.1875 13.0625 -9.8125 C 14.363281 -8.4375 15.945312 -7.75 17.8125 -7.75 C 19.6875 -7.75 21.269531 -8.425781 22.5625 -9.78125 C 23.863281 -11.144531 24.515625 -13 24.515625 -15.34375 Z M 24.515625 -15.34375 "/></g></g><g transform="translate(166.041028, 115.718241)"><g><path d="M 32.328125 -15.828125 C 32.328125 -14.953125 32.273438 -14.039062 32.171875 -13.09375 L 10.890625 -13.09375 C 11.035156 -11.1875 11.644531 -9.726562 12.71875 -8.71875 C 13.800781 -7.707031 15.132812 -7.203125 16.71875 -7.203125 C 19.0625 -7.203125 20.691406 -8.191406 21.609375 -10.171875 L 31.609375 -10.171875 C 31.097656 -8.148438 30.171875 -6.332031 28.828125 -4.71875 C 27.492188 -3.113281 25.816406 -1.851562 23.796875 -0.9375 C 21.785156 -0.0195312 19.535156 0.4375 17.046875 0.4375 C 14.035156 0.4375 11.359375 -0.203125 9.015625 -1.484375 C 6.671875 -2.765625 4.835938 -4.597656 3.515625 -6.984375 C 2.203125 -9.367188 1.546875 -12.15625 1.546875 -15.34375 C 1.546875 -18.53125 2.191406 -21.3125 3.484375 -23.6875 C 4.785156 -26.070312 6.609375 -27.90625 8.953125 -29.1875 C 11.304688 -30.476562 14.003906 -31.125 17.046875 -31.125 C 20.015625 -31.125 22.648438 -30.5 24.953125 -29.25 C 27.265625 -28 29.070312 -26.21875 30.375 -23.90625 C 31.675781 -21.601562 32.328125 -18.910156 32.328125 -15.828125 Z M 22.703125 -18.3125 C 22.703125 -19.925781 22.148438 -21.207031 21.046875 -22.15625 C 19.953125 -23.113281 18.582031 -23.59375 16.9375 -23.59375 C 15.363281 -23.59375 14.035156 -23.132812 12.953125 -22.21875 C 11.867188 -21.300781 11.195312 -20 10.9375 -18.3125 Z M 22.703125 -18.3125 "/></g></g><g transform="translate(199.911875, 115.718241)"><g><path d="M 15.890625 0.4375 C 13.210938 0.4375 10.828125 -0.0195312 8.734375 -0.9375 C 6.648438 -1.851562 5.003906 -3.109375 3.796875 -4.703125 C 2.585938 -6.296875 1.910156 -8.082031 1.765625 -10.0625 L 11.046875 -10.0625 C 11.160156 -9 11.65625 -8.132812 12.53125 -7.46875 C 13.414062 -6.8125 14.5 -6.484375 15.78125 -6.484375 C 16.957031 -6.484375 17.863281 -6.710938 18.5 -7.171875 C 19.144531 -7.628906 19.46875 -8.226562 19.46875 -8.96875 C 19.46875 -9.84375 19.007812 -10.488281 18.09375 -10.90625 C 17.175781 -11.332031 15.691406 -11.800781 13.640625 -12.3125 C 11.441406 -12.832031 9.609375 -13.375 8.140625 -13.9375 C 6.671875 -14.507812 5.40625 -15.40625 4.34375 -16.625 C 3.28125 -17.851562 2.75 -19.515625 2.75 -21.609375 C 2.75 -23.367188 3.234375 -24.972656 4.203125 -26.421875 C 5.171875 -27.867188 6.597656 -29.015625 8.484375 -29.859375 C 10.378906 -30.703125 12.628906 -31.125 15.234375 -31.125 C 19.078125 -31.125 22.109375 -30.171875 24.328125 -28.265625 C 26.546875 -26.359375 27.820312 -23.828125 28.15625 -20.671875 L 19.46875 -20.671875 C 19.320312 -21.734375 18.851562 -22.578125 18.0625 -23.203125 C 17.269531 -23.828125 16.234375 -24.140625 14.953125 -24.140625 C 13.859375 -24.140625 13.015625 -23.925781 12.421875 -23.5 C 11.835938 -23.082031 11.546875 -22.507812 11.546875 -21.78125 C 11.546875 -20.894531 12.007812 -20.234375 12.9375 -19.796875 C 13.875 -19.359375 15.332031 -18.914062 17.3125 -18.46875 C 19.59375 -17.882812 21.445312 -17.304688 22.875 -16.734375 C 24.300781 -16.171875 25.554688 -15.253906 26.640625 -13.984375 C 27.722656 -12.722656 28.28125 -11.03125 28.3125 -8.90625 C 28.3125 -7.113281 27.804688 -5.507812 26.796875 -4.09375 C 25.796875 -2.6875 24.347656 -1.578125 22.453125 -0.765625 C 20.566406 0.0351562 18.378906 0.4375 15.890625 0.4375 Z M 15.890625 0.4375 "/></g></g><g transform="translate(230.593583, 115.718241)"><g><path d="M 20.515625 -7.96875 L 20.515625 0 L 15.71875 0 C 12.3125 0 9.65625 -0.832031 7.75 -2.5 C 5.84375 -4.164062 4.890625 -6.890625 4.890625 -10.671875 L 4.890625 -22.875 L 1.15625 -22.875 L 1.15625 -30.6875 L 4.890625 -30.6875 L 4.890625 -38.15625 L 14.296875 -38.15625 L 14.296875 -30.6875 L 20.453125 -30.6875 L 20.453125 -22.875 L 14.296875 -22.875 L 14.296875 -10.5625 C 14.296875 -9.644531 14.515625 -8.984375 14.953125 -8.578125 C 15.390625 -8.171875 16.125 -7.96875 17.15625 -7.96875 Z M 20.515625 -7.96875 "/></g></g></g><g fill="#2b2d9e" fill-opacity="1"><g transform="translate(252.917548, 115.718241)"><g><path d="M 1.546875 -15.390625 C 1.546875 -18.546875 2.140625 -21.3125 3.328125 -23.6875 C 4.515625 -26.070312 6.132812 -27.90625 8.1875 -29.1875 C 10.238281 -30.476562 12.53125 -31.125 15.0625 -31.125 C 17.226562 -31.125 19.125 -30.679688 20.75 -29.796875 C 22.382812 -28.921875 23.640625 -27.769531 24.515625 -26.34375 L 24.515625 -30.6875 L 33.921875 -30.6875 L 33.921875 0 L 24.515625 0 L 24.515625 -4.34375 C 23.597656 -2.914062 22.320312 -1.757812 20.6875 -0.875 C 19.0625 0 17.171875 0.4375 15.015625 0.4375 C 12.515625 0.4375 10.238281 -0.210938 8.1875 -1.515625 C 6.132812 -2.816406 4.515625 -4.664062 3.328125 -7.0625 C 2.140625 -9.46875 1.546875 -12.242188 1.546875 -15.390625 Z M 24.515625 -15.34375 C 24.515625 -17.6875 23.863281 -19.535156 22.5625 -20.890625 C 21.269531 -22.242188 19.6875 -22.921875 17.8125 -22.921875 C 15.945312 -22.921875 14.363281 -22.253906 13.0625 -20.921875 C 11.757812 -19.585938 11.109375 -17.742188 11.109375 -15.390625 C 11.109375 -13.046875 11.757812 -11.1875 13.0625 -9.8125 C 14.363281 -8.4375 15.945312 -7.75 17.8125 -7.75 C 19.6875 -7.75 21.269531 -8.425781 22.5625 -9.78125 C 23.863281 -11.144531 24.515625 -13 24.515625 -15.34375 Z M 7.875 -33.265625 C 8.75 -38.691406 11.273438 -41.40625 15.453125 -41.40625 C 16.265625 -41.40625 16.972656 -41.285156 17.578125 -41.046875 C 18.179688 -40.804688 18.921875 -40.445312 19.796875 -39.96875 C 20.460938 -39.601562 20.992188 -39.335938 21.390625 -39.171875 C 21.796875 -39.003906 22.21875 -38.921875 22.65625 -38.921875 C 24.007812 -38.921875 24.800781 -39.75 25.03125 -41.40625 L 29.859375 -41.40625 C 28.984375 -35.976562 26.457031 -33.265625 22.28125 -33.265625 C 21.46875 -33.265625 20.757812 -33.382812 20.15625 -33.625 C 19.550781 -33.863281 18.8125 -34.21875 17.9375 -34.6875 C 17.269531 -35.0625 16.734375 -35.328125 16.328125 -35.484375 C 15.929688 -35.648438 15.515625 -35.734375 15.078125 -35.734375 C 13.710938 -35.734375 12.90625 -34.910156 12.65625 -33.265625 Z M 7.875 -33.265625 "/></g></g><g transform="translate(290.252458, 115.718241)"><g><path d="M 17.375 0.4375 C 14.363281 0.4375 11.65625 -0.203125 9.25 -1.484375 C 6.851562 -2.765625 4.96875 -4.597656 3.59375 -6.984375 C 2.226562 -9.367188 1.546875 -12.15625 1.546875 -15.34375 C 1.546875 -18.488281 2.238281 -21.257812 3.625 -23.65625 C 5.019531 -26.0625 6.925781 -27.90625 9.34375 -29.1875 C 11.757812 -30.476562 14.472656 -31.125 17.484375 -31.125 C 20.492188 -31.125 23.207031 -30.476562 25.625 -29.1875 C 28.039062 -27.90625 29.945312 -26.0625 31.34375 -23.65625 C 32.738281 -21.257812 33.4375 -18.488281 33.4375 -15.34375 C 33.4375 -12.1875 32.726562 -9.40625 31.3125 -7 C 29.90625 -4.601562 27.984375 -2.765625 25.546875 -1.484375 C 23.109375 -0.203125 20.382812 0.4375 17.375 0.4375 Z M 17.375 -7.703125 C 19.164062 -7.703125 20.691406 -8.359375 21.953125 -9.671875 C 23.222656 -10.992188 23.859375 -12.882812 23.859375 -15.34375 C 23.859375 -17.800781 23.242188 -19.6875 22.015625 -21 C 20.785156 -22.320312 19.273438 -22.984375 17.484375 -22.984375 C 15.648438 -22.984375 14.128906 -22.332031 12.921875 -21.03125 C 11.710938 -19.726562 11.109375 -17.832031 11.109375 -15.34375 C 11.109375 -12.882812 11.703125 -10.992188 12.890625 -9.671875 C 14.085938 -8.359375 15.582031 -7.703125 17.375 -7.703125 Z M 17.375 -7.703125 "/></g></g></g></svg>